<?xml version="1.0" encoding="UTF-8"?>
<svg id="Layer_1" xmlns="http://www.w3.org/2000/svg" version="1.1" viewBox="0 0 2000 2000">
  <!-- Generator: Adobe Illustrator 29.3.1, SVG Export Plug-In . SVG Version: 2.1.0 Build 151)  -->
  <defs>
    <style>
      .st0 {
        fill: #fff;
      }

      .st1 {
        fill: #01112b;
      }
    </style>
  </defs>
  <rect class="st1" x="-3943.3" y="-78.5" width="2156.9" height="2156.9"/>
  <g>
    <polygon class="st0" points="1154.5 1585.3 1357.3 1585.3 1411 1413 1227.3 1367.8 1154.5 1585.3"/>
    <circle class="st0" cx="1357.3" cy="1449.7" r="135.5"/>
    <path class="st0" d="M1574.9,731.9c-23.8-38-51.2-73.4-81.8-105.8-122.9-130.1-297-211.3-490.1-211.3s-367.2,81.2-490.1,211.3c-30.6,32.4-58,67.8-81.8,105.8-17.6,38.2-27.5,80.8-27.5,125.6s17,113.7,46.2,160c12-93.9,47.3-180.5,99.9-253.8,0,0,0,0,0,0,6.8-11.1,14.7-21.3,23.7-30.6,58.5-70.5,133.9-126.3,220.1-161.2h0c64.6-26.2,135.3-40.6,209.3-40.6s144.7,14.4,209.3,40.6c86.2,34.9,161.7,90.8,220.1,161.3h0s.1.1.1.1c8.9,9.3,16.8,19.5,23.6,30.6,39.5,55,69.3,117.5,86.7,185,4.8,18.7,8.7,37.8,11.6,57.3.6,3.8,1.1,7.7,1.6,11.5,10.2-16.2,19-33.4,26-51.5,1.1-2.9,2.2-5.7,3.2-8.6,11-31.2,17.1-64.9,17.1-99.9s-9.9-87.4-27.5-125.6Z"/>
    <path class="st0" d="M793.8,571.7h0c-28.5-9-58.9-13.9-90.4-13.9-72.3,0-138.6,25.6-190.4,68.2-34.6,28.5-62.7,64.6-81.8,105.8-17.6,38.2-27.5,80.8-27.5,125.6s17,113.7,46.2,160h0c53.1,83.9,146.8,139.7,253.4,139.7,165.5,0,299.7-134.2,299.7-299.7s-88-247.5-209.3-285.8ZM703.5,1037.3c-99.3,0-179.9-80.5-179.9-179.9s9.6-66.5,26.4-93.8c0,0,0,0,0,0,6.8-11.1,14.7-21.3,23.7-30.6,32.7-34.1,78.8-55.3,129.8-55.3,99.3,0,179.9,80.5,179.9,179.9s-80.5,179.9-179.9,179.9Z"/>
    <path class="st0" d="M1585.4,957.3c-1,2.9-2.1,5.8-3.2,8.6l-27.6,39.9-51.2,74.1-162.4,235.1h0s-6.7,9.8-6.7,9.8h0s-40.8,59.1-40.8,59.1l-60.5,87.6h0s-7.3,10.6-7.3,10.6h0s-71.1,103-71.1,103h0s0,0,0,0l-120.6-595.3-30.3-149.6c0-.8,0-1.5.1-2.3l119.3,24.4c2.7,97,82.1,174.8,179.8,174.8s134.8-42.8,163.3-104.5l76.9,15.8,42.4,8.7Z"/>
    <path class="st0" d="M1574.9,731.9c-19-41.2-47.1-77.3-81.8-105.8-51.8-42.6-118.1-68.2-190.4-68.2s-61.9,4.9-90.4,13.9c-115.4,36.5-200.7,140.9-208.7,266.4,0,.8,0,1.5-.1,2.3-.3,5.7-.5,11.4-.5,17.1,0,47.6,11.1,92.5,30.8,132.5,48.9,99.1,150.9,167.2,268.9,167.2s147.5-29.2,200.6-77.1c20.3-18.3,38.1-39.4,52.8-62.6,10.2-16.2,19-33.4,26-51.5,1.1-2.9,2.2-5.7,3.2-8.6,11-31.2,17.1-64.9,17.1-99.9s-9.9-87.4-27.5-125.6ZM1302.8,1037.3c-97.7,0-177.1-77.8-179.8-174.8,0-1.7,0-3.4,0-5,0-99.3,80.5-179.9,179.9-179.9s97,21.2,129.8,55.3h0s.1.1.1.1c8.9,9.3,16.8,19.5,23.6,30.6,16.7,27.3,26.4,59.5,26.4,93.8s-5.9,52.5-16.5,75.4c-28.5,61.7-90.9,104.5-163.3,104.5Z"/>
    <g>
      <circle class="st0" cx="1357.3" cy="1449.1" r="126.2"/>
      <path class="st1" d="M1301.1,1563.7c63,31,139.2,5.1,170.2-57.9,20.3-41.2,16.2-88.1-6.7-124.3-.8-1.3-1.6-2.5-2.5-3.7-.3-.4-.5-.7-.7-1.1-9.3-13.3-21.1-24.6-34.6-33.4-.2-.1-.4-.3-.6-.4-1.3-.8-2.6-1.6-3.9-2.4-.6-.4-1.2-.7-1.8-1.1-1-.6-2.1-1.1-3.1-1.7-.9-.5-1.8-1-2.8-1.5-.9-.4-1.7-.8-2.6-1.3-1.1-.5-2.2-1-3.3-1.5-.8-.4-1.6-.7-2.5-1.1-1.1-.5-2.2-.9-3.3-1.3-.9-.3-1.8-.7-2.7-1-1-.4-2-.7-3-1-1.1-.4-2.1-.7-3.2-1-.8-.3-1.7-.5-2.5-.7-1.3-.4-2.6-.7-3.9-1-.6-.1-1.2-.3-1.8-.4-1.6-.4-3.1-.7-4.7-1-.3,0-.7-.1-1-.2-1.9-.3-3.7-.6-5.6-.9,0,0,0,0-.1,0-8.3-1.1-16.9-1.4-25.7-.8-8.6.6-17,2-25,4.2-.2,0-.5.1-.7.2-1.4.4-2.7.8-4,1.2-.8.2-1.6.5-2.4.7-.6.2-1.2.4-1.8.6-30.2,10.7-56.4,32.7-71.7,63.6-31,63-5.1,139.2,57.8,170.2ZM1261.4,1530.2c13.8,2.3,26.6,1.2,38.2,9.3,9.7,6.7,20.9,12,32.1,15.7,10.8,3.5,16.2,11.7,23.4,19.4-33.3,1.3-71.3-16.8-93.8-44.4ZM1388.1,1538.9c-14.2,5.4-28.4,11.1-42.6,16.4-1.9.7-4.5.8-6.5.3-16.5-4.6-31.4-12.5-45.4-22.3-1.5-1-2.8-3.1-3.1-4.9-1.9-12.8-3.3-25.7-5.2-38.5-.5-3.5.2-5.6,3.3-7.5,14.5-8.7,28.9-17.6,43.3-26.6,2.9-1.8,5.2-2,8.3-.3,15.2,8.3,30.6,16.3,46,24.2,3,1.6,4.6,3.3,4.5,6.9-.1,7.6.2,15.2.4,22.8,0,0,0,0,.1,0,.2,8,.2,16,.6,24,.1,3.1-1,4.3-3.7,5.4ZM1435.1,1547.8c-.5-.3-.5-4.6.6-5.7,8.6-8.9,17.3-17.7,26-26.5.3-.3,1-.3,2.3-.7-8,13.2-17.5,24-29,32.9ZM1471.9,1455.5c-.5,14.9-.6,29.9-1.2,44.8,0,2.2-1.5,4.7-3.1,6.4-10.7,11-21.6,21.9-32.6,32.8-1,1-2.6,2.1-3.8,2-12.3-1.3-24.5-2.8-37.1-4.3-.4-18.3-.9-36-1.2-53.7,0-1.4,1.3-3.1,2.4-4.2,12.6-12.7,25.4-25.3,37.9-38.1,2.4-2.5,4.5-2.7,7.5-1.5,8.7,3.3,17.5,6.3,26.4,9.3,3.2,1.1,5,2.8,4.8,6.6ZM1439.7,1357c2,.7,3.9,2.3,5.5,3.9,15.3,15,25.8,32.8,31.9,53.2.9,3.1.9,6.8.3,10-1.4,7.8-3.4,15.5-5.3,23.6-1.7-.2-3-.2-4.2-.6-8.9-3.2-17.9-6.2-26.7-9.8-2.7-1.1-5.5-3.3-7.2-5.8-9.8-14.2-19.3-28.7-29-43.1-1.9-2.7-2.4-5.1-1.2-8.4,3.6-10.2,6.7-20.5,10.3-31.4,9.1,2.9,17.4,5.5,25.7,8.3ZM1381.9,1329.2c8.4,5.6,17,10.9,25.6,16.1,3.1,1.8,4.2,3.5,2.9,7.2-3.2,8.9-5.7,18.1-9,27.1-.7,1.9-3.3,4.1-5.4,4.5-16.7,2.8-33.5,5.2-50.2,7.7-1.8.2-4.1.4-5.4-.5-11.3-7.7-22.4-15.7-33.8-23.9,4.4-9.8,8.6-19.4,13.2-28.8.7-1.5,3.1-2.6,4.9-3.1,11.9-3.3,23.9-6.6,35.9-9.5,7.4-1.8,14.6-1.2,21.3,3.2ZM1350.9,1326.4c-13.5,3.3-20.8,5.1-34.3,8.4-2.4-.3-4.6-.5-6.9-.7,13.1-5.4,26.7-8.7,41.2-7.7ZM1261.3,1395.4c13.4-8.3,26.9-16.5,40.5-24.3,1.6-.9,4.9-.5,6.5.6,9.6,6.5,19.1,13.3,28.5,20.1,1.6,1.2,2.7,3.1,3.4,3.9-1.7,18.7-3.2,36-5,53.2-.2,1.6-2,3.5-3.6,4.5-14.5,9.1-29.2,17.9-43.7,27.1-3.5,2.3-5.4,1.7-8.1-1.1-8.8-9.2-18-18.1-26.8-27.3-1.7-1.8-3-5.1-2.6-7.4,2.2-14.8,4.7-29.6,7.4-44.4.3-1.8,1.9-3.9,3.5-4.8ZM1255.1,1402.8c-3,14.1-4.8,28.5-7.1,42.7-.3,1.7-.5,3.4-1.3,4.9-3.9,8-8,15.8-11.9,23.3-9.3-17.5.8-71.9,17.9-91.6,1.8,7,3.9,13.3,2.4,20.7Z"/>
    </g>
  </g>
</svg>